<svg width="294" height="80" viewBox="0 0 294 80" fill="none" xmlns="http://www.w3.org/2000/svg">
<rect width="294" height="80" rx="8" fill="#0B0D17"/>
<circle cx="56" cy="40" r="24" fill="white"/>
<path fill-rule="evenodd" clip-rule="evenodd" d="M56 16C56 16 56 40 32 40C55.5776 40.1714 56 64 56 64C56 64 56 40 80 40C56 40 56 16 56 16Z" fill="#0B0D17"/>
<path d="M93.142 49.692C91.958 49.692 90.998 49.3 90.262 48.516C89.526 47.732 89.158 46.708 89.158 45.444V44.892C89.158 44.732 89.238 44.652 89.398 44.652H90.574C90.734 44.652 90.814 44.732 90.814 44.892V45.372C90.814 46.22 91.03 46.908 91.462 47.436C91.894 47.948 92.454 48.204 93.142 48.204C93.814 48.204 94.374 47.956 94.822 47.46C95.27 46.964 95.494 46.308 95.494 45.492C95.494 44.948 95.382 44.484 95.158 44.1C94.95 43.7 94.67 43.356 94.318 43.068C93.982 42.764 93.414 42.308 92.614 41.7C91.814 41.108 91.182 40.604 90.718 40.188C90.254 39.756 89.87 39.244 89.566 38.652C89.278 38.06 89.134 37.364 89.134 36.564C89.134 35.316 89.494 34.332 90.214 33.612C90.934 32.876 91.87 32.508 93.022 32.508C94.238 32.508 95.206 32.908 95.926 33.708C96.662 34.492 97.03 35.54 97.03 36.852V37.452C97.03 37.612 96.95 37.692 96.79 37.692H95.59C95.43 37.692 95.35 37.612 95.35 37.452V36.828C95.35 35.98 95.134 35.3 94.702 34.788C94.286 34.26 93.726 33.996 93.022 33.996C92.382 33.996 91.854 34.228 91.438 34.692C91.022 35.14 90.814 35.78 90.814 36.612C90.814 37.108 90.902 37.548 91.078 37.932C91.27 38.3 91.55 38.652 91.918 38.988C92.286 39.324 92.83 39.764 93.55 40.308C94.51 41.012 95.222 41.588 95.686 42.036C96.166 42.468 96.534 42.948 96.79 43.476C97.046 43.988 97.174 44.612 97.174 45.348C97.174 46.66 96.798 47.716 96.046 48.516C95.294 49.3 94.326 49.692 93.142 49.692ZM107.924 32.676C109.092 32.676 110.036 33.108 110.756 33.972C111.476 34.82 111.836 35.94 111.836 37.332C111.836 38.708 111.484 39.82 110.78 40.668C110.076 41.5 109.148 41.916 107.996 41.916H105.524C105.46 41.916 105.428 41.948 105.428 42.012V49.26C105.428 49.42 105.348 49.5 105.188 49.5H103.964C103.804 49.5 103.724 49.42 103.724 49.26V32.916C103.724 32.756 103.804 32.676 103.964 32.676H107.924ZM107.708 40.524C108.428 40.524 109.012 40.236 109.46 39.66C109.908 39.084 110.132 38.316 110.132 37.356C110.132 36.396 109.908 35.628 109.46 35.052C109.012 34.46 108.428 34.164 107.708 34.164H105.524C105.46 34.164 105.428 34.196 105.428 34.26V40.428C105.428 40.492 105.46 40.524 105.524 40.524H107.708ZM124.119 49.5C123.975 49.5 123.887 49.428 123.855 49.284L123.255 46.308C123.255 46.276 123.239 46.252 123.207 46.236C123.191 46.22 123.167 46.212 123.135 46.212H118.791C118.759 46.212 118.727 46.22 118.695 46.236C118.679 46.252 118.671 46.276 118.671 46.308L118.071 49.284C118.055 49.428 117.967 49.5 117.807 49.5H116.583C116.503 49.5 116.439 49.476 116.391 49.428C116.359 49.38 116.351 49.316 116.367 49.236L119.967 32.916C119.999 32.772 120.087 32.7 120.231 32.7H121.671C121.831 32.7 121.919 32.772 121.935 32.916L125.583 49.236V49.284C125.583 49.428 125.511 49.5 125.367 49.5H124.119ZM118.983 44.724C118.983 44.788 119.007 44.82 119.055 44.82H122.847C122.895 44.82 122.919 44.788 122.919 44.724L120.999 35.292C120.983 35.244 120.967 35.22 120.951 35.22C120.935 35.22 120.919 35.244 120.903 35.292L118.983 44.724ZM135.091 49.692C133.859 49.692 132.867 49.316 132.115 48.564C131.379 47.812 131.011 46.804 131.011 45.54V36.636C131.011 35.388 131.379 34.388 132.115 33.636C132.867 32.884 133.859 32.508 135.091 32.508C136.339 32.508 137.331 32.884 138.067 33.636C138.819 34.372 139.195 35.372 139.195 36.636V37.044C139.195 37.204 139.115 37.284 138.955 37.284L137.707 37.356C137.547 37.356 137.467 37.276 137.467 37.116V36.516C137.467 35.764 137.251 35.156 136.819 34.692C136.387 34.228 135.811 33.996 135.091 33.996C134.387 33.996 133.811 34.228 133.363 34.692C132.931 35.156 132.715 35.764 132.715 36.516V45.684C132.715 46.436 132.931 47.044 133.363 47.508C133.811 47.972 134.387 48.204 135.091 48.204C135.811 48.204 136.387 47.972 136.819 47.508C137.251 47.044 137.467 46.436 137.467 45.684V45.084C137.467 44.924 137.547 44.844 137.707 44.844L138.955 44.916C139.115 44.916 139.195 44.996 139.195 45.156V45.54C139.195 46.804 138.819 47.812 138.067 48.564C137.315 49.316 136.323 49.692 135.091 49.692ZM153.788 33.948C153.788 34.108 153.708 34.188 153.548 34.188H147.98C147.916 34.188 147.884 34.22 147.884 34.284V40.236C147.884 40.3 147.916 40.332 147.98 40.332H151.484C151.644 40.332 151.724 40.412 151.724 40.572V41.604C151.724 41.764 151.644 41.844 151.484 41.844H147.98C147.916 41.844 147.884 41.876 147.884 41.94V47.916C147.884 47.98 147.916 48.012 147.98 48.012H153.548C153.708 48.012 153.788 48.092 153.788 48.252V49.26C153.788 49.42 153.708 49.5 153.548 49.5H146.42C146.26 49.5 146.18 49.42 146.18 49.26V32.94C146.18 32.78 146.26 32.7 146.42 32.7H153.548C153.708 32.7 153.788 32.78 153.788 32.94V33.948ZM176.741 32.7C176.901 32.7 176.981 32.78 176.981 32.94V33.948C176.981 34.108 176.901 34.188 176.741 34.188H173.573C173.509 34.188 173.477 34.22 173.477 34.284V49.26C173.477 49.42 173.397 49.5 173.237 49.5H172.013C171.853 49.5 171.773 49.42 171.773 49.26V34.284C171.773 34.22 171.741 34.188 171.677 34.188H168.701C168.541 34.188 168.461 34.108 168.461 33.948V32.94C168.461 32.78 168.541 32.7 168.701 32.7H176.741ZM186.542 49.692C185.31 49.692 184.31 49.308 183.542 48.54C182.79 47.772 182.414 46.756 182.414 45.492V36.708C182.414 35.444 182.79 34.428 183.542 33.66C184.31 32.892 185.31 32.508 186.542 32.508C187.79 32.508 188.798 32.892 189.566 33.66C190.334 34.428 190.718 35.444 190.718 36.708V45.492C190.718 46.74 190.334 47.756 189.566 48.54C188.798 49.308 187.79 49.692 186.542 49.692ZM186.542 48.204C187.278 48.204 187.87 47.964 188.318 47.484C188.782 46.988 189.014 46.356 189.014 45.588V36.636C189.014 35.852 188.782 35.22 188.318 34.74C187.87 34.244 187.278 33.996 186.542 33.996C185.822 33.996 185.238 34.244 184.79 34.74C184.342 35.22 184.118 35.852 184.118 36.636V45.588C184.118 46.356 184.342 46.988 184.79 47.484C185.238 47.964 185.822 48.204 186.542 48.204ZM201.777 49.692C200.545 49.692 199.553 49.268 198.801 48.42C198.049 47.572 197.673 46.452 197.673 45.06V32.94C197.673 32.78 197.753 32.7 197.913 32.7H199.137C199.297 32.7 199.377 32.78 199.377 32.94V45.252C199.377 46.132 199.593 46.844 200.025 47.388C200.473 47.932 201.057 48.204 201.777 48.204C202.513 48.204 203.105 47.932 203.553 47.388C204.001 46.844 204.225 46.132 204.225 45.252V32.94C204.225 32.78 204.305 32.7 204.465 32.7H205.689C205.849 32.7 205.929 32.78 205.929 32.94V45.06C205.929 46.452 205.545 47.572 204.777 48.42C204.025 49.268 203.025 49.692 201.777 49.692ZM220.001 49.5C219.857 49.5 219.761 49.436 219.713 49.308L217.265 41.892C217.249 41.844 217.217 41.82 217.169 41.82H215.081C215.017 41.82 214.985 41.852 214.985 41.916V49.26C214.985 49.42 214.905 49.5 214.745 49.5H213.521C213.361 49.5 213.281 49.42 213.281 49.26V32.94C213.281 32.78 213.361 32.7 213.521 32.7H217.481C218.649 32.7 219.593 33.132 220.313 33.996C221.033 34.844 221.393 35.956 221.393 37.332C221.393 38.372 221.169 39.268 220.721 40.02C220.273 40.772 219.665 41.3 218.897 41.604C218.833 41.62 218.809 41.66 218.825 41.724L221.441 49.236L221.465 49.332C221.465 49.444 221.393 49.5 221.249 49.5H220.001ZM215.081 34.188C215.017 34.188 214.985 34.22 214.985 34.284V40.356C214.985 40.42 215.017 40.452 215.081 40.452H217.241C217.977 40.452 218.569 40.172 219.017 39.612C219.465 39.036 219.689 38.276 219.689 37.332C219.689 36.388 219.465 35.628 219.017 35.052C218.569 34.476 217.977 34.188 217.241 34.188H215.081ZM228.212 49.5C228.052 49.5 227.972 49.42 227.972 49.26V32.94C227.972 32.78 228.052 32.7 228.212 32.7H229.436C229.596 32.7 229.676 32.78 229.676 32.94V49.26C229.676 49.42 229.596 49.5 229.436 49.5H228.212ZM240.442 49.692C239.258 49.692 238.298 49.3 237.562 48.516C236.826 47.732 236.458 46.708 236.458 45.444V44.892C236.458 44.732 236.538 44.652 236.698 44.652H237.874C238.034 44.652 238.114 44.732 238.114 44.892V45.372C238.114 46.22 238.33 46.908 238.762 47.436C239.194 47.948 239.754 48.204 240.442 48.204C241.114 48.204 241.674 47.956 242.122 47.46C242.57 46.964 242.794 46.308 242.794 45.492C242.794 44.948 242.682 44.484 242.458 44.1C242.25 43.7 241.97 43.356 241.618 43.068C241.282 42.764 240.714 42.308 239.914 41.7C239.114 41.108 238.482 40.604 238.018 40.188C237.554 39.756 237.17 39.244 236.866 38.652C236.578 38.06 236.434 37.364 236.434 36.564C236.434 35.316 236.794 34.332 237.514 33.612C238.234 32.876 239.17 32.508 240.322 32.508C241.538 32.508 242.506 32.908 243.226 33.708C243.962 34.492 244.33 35.54 244.33 36.852V37.452C244.33 37.612 244.25 37.692 244.09 37.692H242.89C242.73 37.692 242.65 37.612 242.65 37.452V36.828C242.65 35.98 242.434 35.3 242.002 34.788C241.586 34.26 241.026 33.996 240.322 33.996C239.682 33.996 239.154 34.228 238.738 34.692C238.322 35.14 238.114 35.78 238.114 36.612C238.114 37.108 238.202 37.548 238.378 37.932C238.57 38.3 238.85 38.652 239.218 38.988C239.586 39.324 240.13 39.764 240.85 40.308C241.81 41.012 242.522 41.588 242.986 42.036C243.466 42.468 243.834 42.948 244.09 43.476C244.346 43.988 244.474 44.612 244.474 45.348C244.474 46.66 244.098 47.716 243.346 48.516C242.594 49.3 241.626 49.692 240.442 49.692ZM258.532 32.868C258.58 32.756 258.676 32.7 258.82 32.7H260.068C260.228 32.7 260.308 32.78 260.308 32.94V49.26C260.308 49.42 260.228 49.5 260.068 49.5H258.844C258.684 49.5 258.604 49.42 258.604 49.26V36.396C258.604 36.348 258.588 36.324 258.556 36.324C258.54 36.324 258.516 36.34 258.484 36.372L255.988 41.556C255.94 41.668 255.86 41.724 255.748 41.724C255.62 41.724 255.532 41.668 255.484 41.556L252.988 36.396C252.956 36.364 252.924 36.348 252.892 36.348C252.876 36.348 252.868 36.372 252.868 36.42V49.26C252.868 49.42 252.788 49.5 252.628 49.5H251.404C251.244 49.5 251.164 49.42 251.164 49.26V32.94C251.164 32.78 251.244 32.7 251.404 32.7H252.652C252.796 32.7 252.892 32.756 252.94 32.868L255.676 38.412C255.692 38.444 255.716 38.46 255.748 38.46C255.78 38.46 255.804 38.444 255.82 38.412L258.532 32.868Z" fill="white"/>
</svg>
